<?xml version="1.0" encoding="UTF-8"?>
<svg id="Camada_2" data-name="Camada 2" xmlns="http://www.w3.org/2000/svg" viewBox="0 0 556.19 199.71">
  <defs>
    <style>
      .cls-1 {
        fill: #fff;
      }

      .cls-2 {
        fill: #e20613;
      }
    </style>
  </defs>
  <g id="Camada_5" data-name="Camada 5">
    <g>
      <g>
        <path class="cls-1" d="M217.86,69.08h6.31v12.12c-3.28,2.47-7.81,3.8-12.07,3.8-9.39,0-16.3-6.44-16.3-15.45s6.91-15.44,16.43-15.44c5.25,0,9.6,1.79,12.5,5.16l-4.44,4.1c-2.18-2.3-4.69-3.37-7.72-3.37-5.8,0-9.77,3.88-9.77,9.56s3.97,9.56,9.69,9.56c1.88,0,3.63-.34,5.38-1.28v-8.75Z"/>
        <path class="cls-1" d="M253.69,78.94v5.55h-23.12v-29.87h22.57v5.55h-15.7v6.48h13.87v5.38h-13.87v6.91h16.26Z"/>
        <path class="cls-1" d="M256.85,81.54l2.35-5.2c2.52,1.83,6.27,3.11,9.86,3.11,4.1,0,5.76-1.36,5.76-3.2,0-5.59-17.37-1.75-17.37-12.84,0-5.08,4.1-9.3,12.59-9.3,3.75,0,7.59.9,10.37,2.64l-2.13,5.25c-2.77-1.58-5.63-2.35-8.28-2.35-4.1,0-5.67,1.54-5.67,3.41,0,5.5,17.36,1.71,17.36,12.67,0,4.99-4.14,9.26-12.67,9.26-4.74,0-9.51-1.41-12.16-3.46Z"/>
        <path class="cls-1" d="M284.06,81.54l2.35-5.2c2.52,1.83,6.27,3.11,9.86,3.11,4.1,0,5.76-1.36,5.76-3.2,0-5.59-17.37-1.75-17.37-12.84,0-5.08,4.1-9.3,12.59-9.3,3.75,0,7.59.9,10.37,2.64l-2.13,5.25c-2.77-1.58-5.63-2.35-8.28-2.35-4.1,0-5.67,1.54-5.67,3.41,0,5.5,17.36,1.71,17.36,12.67,0,4.99-4.14,9.26-12.67,9.26-4.74,0-9.51-1.41-12.16-3.46Z"/>
        <path class="cls-1" d="M311.75,69.55c0-8.87,6.91-15.44,16.34-15.44s16.34,6.53,16.34,15.44-6.95,15.45-16.34,15.45-16.34-6.57-16.34-15.45ZM337.43,69.55c0-5.67-4.01-9.56-9.34-9.56s-9.34,3.88-9.34,9.56,4.01,9.56,9.34,9.56,9.34-3.88,9.34-9.56Z"/>
        <path class="cls-1" d="M354.96,80.65c0,1.11-.17,1.92-1.15,4.27l-2.43,6.14h-4.22l1.88-6.78c-1.41-.55-2.3-1.88-2.3-3.63,0-2.48,1.79-4.1,4.14-4.1s4.1,1.66,4.1,4.1Z"/>
        <path class="cls-1" d="M378.94,60.17v7.89h13.82v5.55h-13.82v10.88h-6.91v-29.87h22.57v5.55h-15.66Z"/>
        <path class="cls-1" d="M397.11,69.55c0-8.87,6.91-15.44,16.34-15.44s16.34,6.53,16.34,15.44-6.95,15.45-16.34,15.45-16.34-6.57-16.34-15.45ZM422.79,69.55c0-5.67-4.01-9.56-9.34-9.56s-9.34,3.88-9.34,9.56,4.01,9.56,9.34,9.56,9.34-3.88,9.34-9.56Z"/>
        <path class="cls-1" d="M454.02,84.48l-5.76-8.32h-6.36v8.32h-6.91v-29.87h12.93c7.98,0,12.97,4.14,12.97,10.84,0,4.48-2.26,7.77-6.14,9.43l6.7,9.6h-7.42ZM447.53,60.25h-5.63v10.41h5.63c4.22,0,6.36-1.96,6.36-5.2s-2.13-5.2-6.36-5.2Z"/>
        <path class="cls-1" d="M485.37,84.48l-5.76-8.32h-6.36v8.32h-6.91v-29.87h12.93c7.98,0,12.97,4.14,12.97,10.84,0,4.48-2.26,7.77-6.14,9.43l6.7,9.6h-7.42ZM478.89,60.25h-5.63v10.41h5.63c4.22,0,6.36-1.96,6.36-5.2s-2.13-5.2-6.36-5.2Z"/>
        <path class="cls-1" d="M495.82,69.55c0-8.87,6.91-15.44,16.34-15.44s16.34,6.53,16.34,15.44-6.95,15.45-16.34,15.45-16.34-6.57-16.34-15.45ZM521.5,69.55c0-5.67-4.01-9.56-9.34-9.56s-9.34,3.88-9.34,9.56,4.01,9.56,9.34,9.56,9.34-3.88,9.34-9.56Z"/>
        <path class="cls-1" d="M531.35,81.54l2.35-5.2c2.52,1.83,6.27,3.11,9.86,3.11,4.1,0,5.76-1.36,5.76-3.2,0-5.59-17.37-1.75-17.37-12.84,0-5.08,4.1-9.3,12.59-9.3,3.75,0,7.59.9,10.37,2.64l-2.13,5.25c-2.77-1.58-5.63-2.35-8.28-2.35-4.1,0-5.67,1.54-5.67,3.41,0,5.5,17.36,1.71,17.36,12.67,0,4.99-4.14,9.26-12.67,9.26-4.74,0-9.51-1.41-12.16-3.46Z"/>
        <path class="cls-1" d="M220.81,130.13v5.55h-23.12v-29.87h22.57v5.55h-15.7v6.48h13.87v5.38h-13.87v6.91h16.26Z"/>
        <path class="cls-1" d="M238.38,105.81h6.91v29.87h-6.91v-29.87Z"/>
        <path class="cls-1" d="M252.37,105.81h6.91v24.23h14.98v5.63h-21.89v-29.87Z"/>
        <path class="cls-1" d="M277.49,122.53v-16.73h6.91v16.47c0,5.67,2.48,8.02,6.66,8.02s6.66-2.35,6.66-8.02v-16.47h6.83v16.73c0,8.79-5.03,13.65-13.53,13.65s-13.53-4.86-13.53-13.65Z"/>
        <path class="cls-1" d="M338.54,135.68l-.04-17.92-8.79,14.76h-3.11l-8.75-14.38v17.53h-6.48v-29.87h5.72l11.18,18.56,11.01-18.56h5.67l.09,29.87h-6.48Z"/>
        <path class="cls-1" d="M352.1,105.81h6.91v29.87h-6.91v-29.87Z"/>
        <path class="cls-1" d="M393.49,105.81v29.87h-5.67l-14.89-18.13v18.13h-6.83v-29.87h5.72l14.85,18.13v-18.13h6.83Z"/>
        <path class="cls-1" d="M420.23,129.28h-13.86l-2.65,6.4h-7.08l13.31-29.87h6.83l13.35,29.87h-7.25l-2.65-6.4ZM418.06,124.03l-4.74-11.43-4.74,11.43h9.47Z"/>
        <path class="cls-1" d="M455,126.76l4.44,4.1c-2.69,3.33-6.78,5.16-11.69,5.33l-.38,1.62c2.6.3,3.71,1.79,3.71,3.54,0,2.6-2.47,4.22-6.27,4.22-1.49,0-2.99-.34-3.97-.9l1.02-2.86c.81.38,1.75.64,2.77.64,1.58,0,2.22-.55,2.22-1.37,0-.72-.6-1.24-2.09-1.24h-1.45l.94-3.88c-7.77-1.19-13.31-7.17-13.31-15.23,0-9,6.91-15.44,16.21-15.44,5.16,0,9.47,1.88,12.29,5.29l-4.44,4.1c-2.01-2.3-4.52-3.5-7.51-3.5-5.59,0-9.56,3.92-9.56,9.56s3.97,9.56,9.56,9.56c2.99,0,5.5-1.19,7.51-3.54Z"/>
        <path class="cls-1" d="M483.15,129.28h-13.87l-2.65,6.4h-7.08l13.31-29.87h6.83l13.35,29.87h-7.25l-2.64-6.4ZM471.46,103.21h-3.37c.09-3.8,2.01-6.23,4.99-6.23s4.44,2.73,5.97,2.73c1.15,0,1.96-.9,2.05-2.3h3.37c-.08,3.67-2,6.1-4.99,6.1s-4.44-2.69-5.97-2.69c-1.15,0-1.96.85-2.05,2.39ZM480.98,124.03l-4.74-11.43-4.74,11.43h9.47Z"/>
        <path class="cls-1" d="M493.86,120.74c0-8.87,6.91-15.44,16.34-15.44s16.34,6.53,16.34,15.44-6.95,15.45-16.34,15.45-16.34-6.57-16.34-15.45ZM519.54,120.74c0-5.67-4.01-9.56-9.34-9.56s-9.34,3.88-9.34,9.56,4.01,9.56,9.34,9.56,9.34-3.88,9.34-9.56Z"/>
        <path class="cls-1" d="M528.79,131.84c0-2.48,1.83-4.1,4.14-4.1s4.14,1.62,4.14,4.1-1.84,4.18-4.14,4.18-4.14-1.75-4.14-4.18Z"/>
      </g>
      <g>
        <g>
          <polygon class="cls-1" points="15.17 58.81 84.77 20.66 148.39 54.8 157.69 61.94 157.69 140.87 91.49 179.02 70.7 175.49 19.06 144.72 15.17 139.27 15.17 58.81"/>
          <polygon class="cls-2" points="81.62 72.04 77.95 72.04 79.78 75.22 81.62 72.04"/>
          <polygon class="cls-2" points="77.95 82.01 81.62 82.01 79.78 78.83 77.95 82.01"/>
          <polygon class="cls-2" points="86.47 86.82 88.21 83.82 84.74 83.82 86.47 86.82"/>
          <polygon class="cls-2" points="86.47 67.24 84.75 70.23 88.2 70.23 86.47 67.24"/>
          <polygon class="cls-2" points="95 72.04 91.33 72.04 93.16 75.22 95 72.04"/>
          <path class="cls-2" d="M86.47,12.18L10.55,56.02v87.67l75.92,43.84,75.92-43.84V56.02L86.47,12.18ZM145.89,56.87l-37.54,21.68v-11.24l.19-.11,27.46-15.81,9.9,5.48ZM103.6,44.4l8.59,4.69-7.33,13.42-8.59-4.69,7.33-13.42ZM91.1,38.85l.37,15.29-9.78.24-.37-15.29,9.78-.24ZM69.11,45.23l7.96,13.06-8.36,5.1-7.96-13.06,8.36-5.1ZM36.95,51.4l.18.1,27.46,15.81v11.24l-37.54-21.68,9.9-5.48ZM79.31,113.44l-44.41-25.08v41.88l28.86,16.66v-16.23l-14.8-8.55v-17.95l30.35,17.52v52.14l-59.96-34.62V61.44l59.96,34.62v17.38ZM86.48,90.42l-3.81-6.61h-7.84l3.92-6.79-3.92-6.79h7.84l3.81-6.61,3.81,6.61h7.84l-3.92,6.79,3.92,6.79h-7.84l-3.81,6.61ZM152.04,77.97l-44.41,27.17v42.73l29.61-17.74v-17.09s-14.8,8.87-14.8,8.87v-17.09l29.61-17.74v51.28l-59.21,35.47v-76.92l59.21-35.47v16.53Z"/>
          <polygon class="cls-2" points="89.25 72.04 83.7 72.04 80.83 77.03 83.7 82.01 89.25 82.01 92.12 77.03 89.25 72.04"/>
          <polygon class="cls-2" points="93.16 78.83 91.33 82.01 95 82.01 93.16 78.83"/>
        </g>
        <path class="cls-1" d="M86.47,199.71L0,149.78V49.93L86.47,0l86.47,49.93v99.85l-86.47,49.93ZM3.85,147.56l82.62,47.7,82.62-47.7V52.15L86.47,4.45,3.85,52.15v95.41Z"/>
      </g>
    </g>
  </g>
</svg>